<svg width="80" height="29" viewBox="0 0 80 29" fill="none" xmlns="http://www.w3.org/2000/svg">
<path d="M0.24 0.0399976H11.56V28H5.56V5.36H0.24V0.0399976ZM18.5728 27.32C17.9061 26.6267 17.5728 25.7867 17.5728 24.8C17.5728 23.8133 17.9061 22.9867 18.5728 22.32C19.2661 21.6267 20.1061 21.28 21.0928 21.28C22.0795 21.28 22.9061 21.6267 23.5728 22.32C24.2661 22.9867 24.6128 23.8133 24.6128 24.8C24.6128 25.7867 24.2661 26.6267 23.5728 27.32C22.9061 27.9867 22.0795 28.32 21.0928 28.32C20.1061 28.32 19.2661 27.9867 18.5728 27.32ZM47.2963 0.0399976V5.44H36.2562V10.12C37.0829 9.88 38.0296 9.76 39.0963 9.76C41.7896 9.76 44.1096 10.5733 46.0563 12.2C48.0029 13.8267 48.9763 16.0267 48.9763 18.8C48.9763 21.5467 47.9629 23.8267 45.9363 25.64C43.9363 27.4267 41.4563 28.32 38.4963 28.32C34.7096 28.32 31.5496 26.92 29.0162 24.12L32.2963 19.56C32.5362 19.8 32.8562 20.0933 33.2562 20.44C33.6562 20.7867 34.3896 21.2533 35.4562 21.84C36.5229 22.4 37.5896 22.68 38.6563 22.68C39.7229 22.68 40.6696 22.36 41.4963 21.72C42.3229 21.08 42.7363 20.1333 42.7363 18.88C42.7363 17.6267 42.2829 16.6667 41.3763 16C40.4963 15.3067 39.3496 14.96 37.9363 14.96C36.5229 14.96 34.8829 15.4667 33.0162 16.48L30.4162 13.68V0.0399976H47.2963ZM54.5244 0.0399976H60.7644V11.52L71.3244 0.0399976H79.0444L67.9244 12.4C68.8844 13.7333 70.6577 16.2267 73.2444 19.88C75.831 23.5067 77.7644 26.2133 79.0444 28H71.7644L63.5644 16.96L60.7644 20.08V28H54.5244V0.0399976Z" fill="#252B42"/>
</svg>
