<svg width="62" height="29" viewBox="0 0 62 29" fill="none" xmlns="http://www.w3.org/2000/svg">
<path d="M0.24 1.04H11.56V29H5.56V6.36H0.24V1.04ZM25.8528 15.96C27.5061 14.28 28.6795 12.9467 29.3728 11.96C30.0928 10.9467 30.4528 9.97333 30.4528 9.04C30.4528 8.10667 30.1461 7.33333 29.5328 6.72C28.9195 6.08 28.1328 5.76 27.1728 5.76C25.4128 5.76 23.7461 7.01333 22.1728 9.52L17.1728 6.56C18.4795 4.53333 19.9061 3 21.4528 1.96C23.0261 0.919998 25.0128 0.399999 27.4128 0.399999C29.8395 0.399999 31.9595 1.17333 33.7728 2.72C35.6128 4.24 36.5328 6.32 36.5328 8.96C36.5328 10.4 36.1595 11.7867 35.4128 13.12C34.6928 14.4267 33.3461 16.1067 31.3728 18.16L26.3328 23.4H37.3728V29H17.6528V24.36L25.8528 15.96ZM48.6716 24.64V17.44H41.6716V12.52H48.6716V5.32H54.1916V12.52H61.1916V17.44H54.1916V24.64H48.6716Z" fill="#252B42"/>
</svg>
