<svg width="51" height="29" viewBox="0 0 51 29" fill="none" xmlns="http://www.w3.org/2000/svg">
<path d="M2 5.36V0.0399976H19.12V4.36L13.4 10.88C15.64 11.2533 17.3733 12.2 18.6 13.72C19.8267 15.2133 20.44 16.9467 20.44 18.92C20.44 21.8533 19.44 24.16 17.44 25.84C15.4667 27.4933 12.9333 28.32 9.84 28.32C6.74667 28.32 3.61333 27.2267 0.44 25.04L3 20.08C5.64 21.9467 8 22.88 10.08 22.88C11.3333 22.88 12.36 22.5733 13.16 21.96C13.9867 21.3467 14.4 20.4667 14.4 19.32C14.4 18.1467 13.9333 17.2267 13 16.56C12.0667 15.8667 10.7733 15.52 9.12 15.52C8.24 15.52 7 15.7733 5.4 16.28V11.68L10.76 5.36H2ZM26.2728 0.0399976H32.5128V11.52L43.0728 0.0399976H50.7928L39.6728 12.4C40.6328 13.7333 42.4061 16.2267 44.9928 19.88C47.5795 23.5067 49.5128 26.2133 50.7928 28H43.5128L35.3128 16.96L32.5128 20.08V28H26.2728V0.0399976Z" fill="#252B42"/>
</svg>
