<svg width="46" height="29" viewBox="0 0 46 29" fill="none" xmlns="http://www.w3.org/2000/svg">
<path d="M12.18 15.92V11.04H18.18V15.92H21.34V21.32H18.18V28H12.18V21.32H0.94V16.56L10.9 0.0399976H17.7L8.22 15.92H12.18ZM43.4556 0.0399976V5.44H32.4156V10.12C33.2423 9.88 34.189 9.76 35.2556 9.76C37.949 9.76 40.269 10.5733 42.2156 12.2C44.1623 13.8267 45.1356 16.0267 45.1356 18.8C45.1356 21.5467 44.1223 23.8267 42.0956 25.64C40.0956 27.4267 37.6156 28.32 34.6556 28.32C30.869 28.32 27.709 26.92 25.1756 24.12L28.4556 19.56C28.6956 19.8 29.0156 20.0933 29.4156 20.44C29.8156 20.7867 30.549 21.2533 31.6156 21.84C32.6823 22.4 33.749 22.68 34.8156 22.68C35.8823 22.68 36.829 22.36 37.6556 21.72C38.4823 21.08 38.8956 20.1333 38.8956 18.88C38.8956 17.6267 38.4423 16.6667 37.5356 16C36.6556 15.3067 35.509 14.96 34.0956 14.96C32.6823 14.96 31.0423 15.4667 29.1756 16.48L26.5756 13.68V0.0399976H43.4556Z" fill="#252B42"/>
</svg>
